<svg width="159" height="68" viewBox="0 0 159 68" fill="none" xmlns="http://www.w3.org/2000/svg">
<path d="M78.0813 58.8054C70.3571 61.0754 61.7607 63.3378 53.3088 64.6693C45.288 65.6661 36.4355 67.4593 27.8999 67.3375C19.3643 67.2158 11.1406 65.1512 4.38268 58.4351C-2.54265 50.2378 -0.820831 39.0578 7.63867 31.3475C41.4767 16.221 76.4254 0.701375 114.115 0.298104C122.078 0.21187 130.091 1.91119 137.191 5.59389C150.055 12.2872 158.766 25.164 158.999 39.7756C159.167 67.4669 129.077 71.0938 102.39 66.1074C93.4965 64.4436 84.9838 61.816 78.1269 58.7953C78.1168 58.7902 78.1041 58.7927 78.0813 58.8054Z" fill="#4761FF"/>
</svg>
